<?xml version="1.0" encoding="utf-8"?>
<!-- Generator: Adobe Illustrator 26.3.1, SVG Export Plug-In . SVG Version: 6.00 Build 0)  -->
<svg version="1.1" class="fillSvg"
	id="svgValknut" xmlns:rdf="http://www.w3.org/1999/02/22-rdf-syntax-ns#" xmlns:cc="http://web.resource.org/cc/" xmlns:dc="http://purl.org/dc/elements/1.1/"
	xmlns="http://www.w3.org/2000/svg" xmlns:xlink="http://www.w3.org/1999/xlink" x="0px" y="0px" viewBox="0 0 728 678"
	style="enable-background:new 0 0 728 678; width:220px; height:206px; position:relative; top:2px; left:0px;" xml:space="preserve">
<style type="text/css">
	.st0{fill:none;stroke-width:4;fill-rule:evenodd;}
</style>
<g id="layer1" stroke='#000000'>
	<path id="path384" class="st0" d="M19.5029,654.329H569.11l-88.714-152.14h-80.424l44.44,80.842H145.661l43.195-80.842h-83.074
		L19.5029,654.329z"/>
	<path id="path384_00000165217703364327265120000008893837779059002284_" class="st0" d="M19.6543,492.568H195.586l40.144-70.705
		h-91.973l149.845-259.384l46.466,77.255l41.673-71.865L293.602,17.5791L19.6543,492.568z"/>
	<path id="path384_00000104679000813830274050000006554138820402200452_" class="st0" d="M159.778,412.447h81.539l52.285-88.623
		l52.675,88.623h81.224L293.602,181.811L159.778,412.447z"/>
	<path id="path384_00000086684250247490245270000004852906107945007033_" class="st0" d="M162.142,573.714h266.755l-40.007-71.525
		H284.518l50.775-89.742l-41.691-70.385L162.142,573.714z"/>
	<path id="path384_00000155864257122352360360000004277107136460457385_" class="st0" d="M300.604,492.568h265.999L433.378,259.951
		l-41.67,70.175l51.297,91.737h-102.66L300.604,492.568z"/>
	<path id="path384_00000165234957670576796370000005925971000844691644_" class="st0" d="M345.934,250.893l40.28,69.609
		l47.164-78.759l150.226,260.446h-90.615l41.403,71.525h174.029L433.378,98.098L345.934,250.893z"/>
</g>
</svg>
