<?xml version="1.0" encoding="utf-8"?>
<!-- Generator: Adobe Illustrator 26.3.1, SVG Export Plug-In . SVG Version: 6.00 Build 0)  -->
<svg version="1.1" id="svgVegvisir" xmlns="http://www.w3.org/2000/svg" xmlns:xlink="http://www.w3.org/1999/xlink" x="0px"
	 y="0px" viewBox="0 0 268.8 268.8" style="enable-background:new 0 0 268.8 268.8; width:280px; height:280px;" xml:space="preserve">
<style type="text/css">
	.st0{fill:none;stroke-width:2.1333;stroke-miterlimit:4.2667;fill-rule:evenodd;}
	.st1{stroke-width:1.4219;stroke-miterlimit:4.2667;fill-rule:evenodd;}
	.st2{fill:none;stroke-width:2.2891;stroke-miterlimit:4.2667;fill-rule:evenodd;}
</style>
<g id="layer5" transform="translate(0 -799.362)" stroke='#000000'>
	<path id="path5037" class="st0" d="M133.3333,933.8287h2.1333"/>
	<path id="path5045" class="st0" d="M113.0667,799.4286v21.3334h42.6667v-21.3334"/>
	<path id="path5047" class="st0" d="M118.4,831.4286h32"/>
	<path id="path5053" class="st0" d="M118.4,842.0953h32"/>
	<path id="path5055" class="st0" d="M118.4,852.762h32"/>
	<path id="path5041" class="st0" d="M134.4,932.762V799.4286"/>
	<path id="path5062" class="st0" d="M133.6459,933.0746l1.5083,1.5082"/>
	<path id="path5068" class="st0" d="M135.1541,933.0746l94.2805-94.2806"/>
	<path id="path5070" class="st0" d="M214.3499,823.7092l-15.0848,15.0848l30.1696,30.1696l15.0859-15.0848"/>
	<path id="path5074" class="st0" d="M184.1813,861.4212l22.6261,22.6272"/>
	<path id="path5084" class="st0" d="M165.3088,872.7503c0,0,11.3291-3.7867,22.6432,7.5275
		c11.3131,11.313,7.5413,22.6272,7.5413,22.6272"/>
	<circle id="path5091" class="st1" cx="172.8659" cy="880.2773" r="0.3552"/>
	<circle id="circle5093" class="st1" cx="187.9509" cy="895.3622" r="0.3552"/>
	<path id="path4238" class="st0" d="M195.4944,850.1071c0,0,1.5083,9.0518,7.5414,15.0848
		c6.0352,6.0341,15.0859,7.5435,15.0859,7.5435"/>
	<path id="path4240" class="st0" d="M135.4667,933.8287H268.8"/>
	<path id="path4242" class="st0" d="M268.8,912.4953h-21.3333v42.6667H268.8"/>
	<path id="path4244" class="st0" d="M220.8,917.8287v32"/>
	<path id="path4252" class="st0" d="M236.8,917.8287c0,0-5.3333,7.4667-5.3333,16s5.3333,16,5.3333,16"/>
	<path id="path4254" class="st0" d="M204.8,917.7892c0,0,5.3333,7.4667,5.3333,16s-5.3333,16-5.3333,16"/>
	<path id="path4256" class="st0" d="M244.5205,1013.7668l-15.0859-15.0848l-30.1696,30.1696l15.0848,15.0848"/>
	<path id="path4258" class="st0" d="M218.1216,994.9102l-22.6272,22.6272"/>
	<path id="path4260" class="st0" d="M210.5792,987.3679l-22.6272,22.6272"/>
	<path id="path4262" class="st0" d="M203.0368,979.8254l-22.6272,22.6273"/>
	<path id="path4264" class="st0" d="M135.1541,934.5807l94.2805,94.2805"/>
	<path id="path4266" class="st0" d="M229.4485,1006.2105c0,0,10.56,10.56-0.7541,21.873
		c-11.3141,11.3142-21.8731,0.7552-21.8731,0.7552"/>
	<path id="path4268" class="st0" d="M161.0667,1068.2288v-21.3334H108.8v21.3334"/>
	<path id="path4276" class="st0" d="M134.3989,934.8953v133.3334"/>
	<path id="path4280" class="st0" d="M147.7333,1068.2288v-13.8667h-26.6667v13.8208"/>
	<path id="path4282" class="st0" d="M139.7333,1067.1621h-10.6667"/>
	<path id="path4286" class="st0" d="M139.7333,1062.8911h-10.6667"/>
	<path id="path4290" class="st0" d="M166.4,1067.1621h-10.6667"/>
	<path id="path4292" class="st0" d="M166.4,1062.8954h-10.6667"/>
	<path id="path4294" class="st0" d="M114.1333,1067.1621h-10.6667"/>
	<path id="path4296" class="st0" d="M114.1333,1062.8954h-10.6667"/>
	<path id="path4300" class="st0" d="M150.9333,1054.3621h6.4"/>
	<path id="path4302" class="st0" d="M154.1333,1047.962v9.6"/>
	<path id="path4304" class="st0" d="M150.9333,1051.1621h6.4"/>
	<path id="path4324" class="st0" d="M111.4667,1054.3621h6.4"/>
	<path id="path4326" class="st0" d="M114.6667,1047.962v9.6"/>
	<path id="path4328" class="st0" d="M111.456,1051.1621h6.4107"/>
	<path id="path4332" class="st0" d="M133.648,934.5807l-94.2805,94.2805"/>
	<path id="path4334" class="st0" d="M54.4512,1043.9492l15.0848-15.0848l-30.1696-30.1696l-15.0859,15.0848"/>
	<path id="path4336" class="st0" d="M73.3557,1017.3188l-22.6272-22.6273"/>
	<path id="path4340" class="st0" d="M84.6997,1006.0356c0,0-9.0507-1.5083-15.0848-7.5424s-7.5413-15.0848-7.5413-15.0848"/>
	<path id="path4342" class="st0" d="M47.6629,1035.6527l-15.0848-15.0848"/>
	<path id="path4344" class="st0" d="M53.696,1029.6185l-15.0848-15.0848"/>
	<path id="path4346" class="st0" d="M0,960.4953h21.3333v-52.2667H0"/>
	<path id="path4348" class="st0" d="M133.3333,933.8265H0"/>
	<path id="path4350" class="st0" d="M0,947.162h20.2667"/>
	<path id="path4376" class="st0" d="M0,920.4953h20.2667"/>
	<path id="path4378" class="st0" d="M133.6544,933.0746L39.3739,838.794"/>
	<path id="path4380" class="st0" d="M35.6021,857.6494l7.5893,7.5894l22.5344-22.72l-7.4965-7.4965"/>
	<path id="path4384" class="st0" d="M54.2827,876.2084c0,0,1.5093-9.0507,7.5424-15.0848
		c6.0341-6.0341,15.0859-7.5424,15.0859-7.5424"/>
	<path id="path4388" class="st0" d="M43.1445,857.6494l15.0848-15.0848"/>
	<circle id="path4390" class="st2" cx="43.1445" cy="842.5649" r="4.7221"/>
</g>
</svg>
